<svg xmlns="http://www.w3.org/2000/svg" viewBox="0 0 32 32" fill="none">
  <rect width="32" height="32" rx="6" fill="#0f172a"/>
  <path d="M 13.08 2.94 C 13.09 8.82 13.1 14.71 13.12 20.6 C 13.13 22.99 13.19 25.39 13.23 27.79 C 13.23 28.1 13.29 28.41 13.44 28.69 C 13.61 29 13.87 29.22 14.22 29.24 C 14.52 29.26 14.84 29.24 15.12 29.16 C 15.6 29.03 15.78 28.65 15.65 28.17 C 15.58 27.91 15.49 27.66 15.41 27.4 C 15.29 27.01 15.28 26.63 15.42 26.25 C 15.49 26.04 15.55 25.84 15.63 25.63 C 15.8 25.15 15.84 24.66 15.73 24.16 C 15.64 23.75 15.58 23.34 15.48 22.94 C 15.31 22.24 15.36 21.6 15.83 21.03 C 15.86 21 15.9 20.97 15.91 20.93 C 15.92 20.87 15.94 20.8 15.93 20.74 C 15.87 20.47 15.76 20.2 15.74 19.93 C 15.74 19.9 15.74 19.86 15.73 19.83 L 15.73 19.83 C 15.73 19.71 15.73 19.6 15.74 19.5 L 18.92 19.5 L 18.92 19.32 L 18.92 19.1 L 18.92 17.3 L 18.92 15.66 C 18.82 13.26 18.31 10.95 17.32 8.71 C 16.32 6.44 14.95 4.43 13.11 2.75 C 13.08 2.82 13.08 2.88 13.08 2.94 M 14.15 5.64 C 16.74 9.21 18.52 13.2 19.51 17.59 C 20.02 19.87 20.26 22.17 20.28 24.49 L 20.3 24.49 L 20.3 25.61 L 20.3 27.42 L 20.3 29.25 L 15.67 29.25 L 11.9 29.25 L 11.9 29.23 C 11.83 29.23 11.77 29.23 11.7 29.23 C 11.7 20.37 11.7 11.56 11.7 2.75 C 11.7 2.75 11.7 2.75 11.7 2.75 C 12.65 3.69 14.21 5.74 14.21 5.74 L 14.15 5.64" fill="#f8fafc" fill-rule="evenodd"/>
</svg>