<?xml version="1.0" encoding="utf-8"?>
<!-- Generator: Adobe Illustrator 21.1.0, SVG Export Plug-In . SVG Version: 6.00 Build 0)  -->
<svg version="1.1" id="Layer_1" xmlns="http://www.w3.org/2000/svg" xmlns:xlink="http://www.w3.org/1999/xlink" x="0px" y="0px"
	 viewBox="200 328 920 340" style="enable-background:new 200 328 920 340;" xml:space="preserve">
<style type="text/css">
	.st0{fill:#FFFFFF;}
</style>
<g>
	<g>
		<path class="st0" d="M217.6,353.5h30.3l10.9,57.8l16-57.8h30.2l16,57.7l10.9-57.7h30.1l-22.7,103.2h-31.3l-18.1-65l-18,65h-31.3
			L217.6,353.5z"/>
		<path class="st0" d="M372.3,353.5h85.4v22h-53.5V392h49.6v21h-49.6v20.3h55v23.4h-87V353.5z"/>
	</g>
	<g>
		<path class="st0" d="M1025.2,461.7c-187.6,0.3-375.2,0.4-562.8,1.2c-76.3,0.3-152.7,2.1-229,3.3c-10.1,0.1-19.8,2.1-28.8,6.9
			c-9.9,5.4-17,13.5-17.6,24.7c-0.6,9.6,0.1,19.7,2.6,28.9c4.1,15,16.4,20.9,31.5,16.8c8.3-2.2,16.5-5,24.7-7.6
			c12.3-3.8,24.5-4.3,36.7,0.2c6.5,2.4,13.1,4.2,19.6,6.6c15.3,5.6,30.9,6.9,46.9,3.3c12.9-2.9,26-4.9,38.9-8
			c22.1-5.4,42.6-3.8,60.8,11.3c1,0.9,2,2.1,3.2,2.4c1.9,0.5,4.2,1,6.1,0.6c8.6-1.9,17-5.4,25.6-6c1.2-0.1,2.3-0.1,3.4-0.2v0
			c3.6-0.1,7.1-0.1,10.4,0.2v101.2h5.8h6.9h57.5h52.3c76.2-3,150-19.4,221.2-50.9c72.3-31.9,136.4-75.6,190-134.2
			C1028.8,461.7,1027,461.7,1025.2,461.7z M943.7,521.1c-65.6,47.5-138.8,80.2-219.5,98.4c-41.8,9.4-84.1,13.8-126.7,14.2v0.2h-20.7
			h-33.1H510v-84.9v-69.4h0.4c0-1.2,0-2.3,0-3.5c162.8,0,324.6,0,486.4,0c0,0,0,0,0,0c-17.3,17.3-54.9,46-54.9,46L943.7,521.1z"/>
		<path class="st0" d="M597.2,479.5h-70.9c-4.5,7.7-8.7,15.6-12.8,23.5V545c4.8,9.1,9.7,18.3,14.6,27.4c16,0,26.2,0.1,42.2,0.1
			c0,10.4,0,15.6,0,26c-20.8,0-36.6,0-56.8-0.1v31.9h67.6l15.3-28.8l1.5-60.8c0,0-43.7-0.1-59.7-0.1c0-10.4,0-19,0-29.4
			c22.2,0.1,37.5,0.2,59.7,0.2C597.6,500.7,597.4,490.1,597.2,479.5z"/>
		<path class="st0" d="M894.5,549c6.7-3.9,13.2-7.9,19.7-12.1v-15l34.1-9.1c10.2-8,27.6-22,40-33.3h-93.8
			C894.5,502.7,894.5,525.8,894.5,549z M914.2,493.3l47-1.5l-2,1.9l-45,10.8V493.3z"/>
		<path class="st0" d="M718.1,479.5l-15.5,22.1c0,0,0,78.5,0,118.7c7-1.3,14-2.7,20.8-4.3c1.4-0.3,2.7-0.6,4-0.9
			c0-17.3-0.1-31.1-0.1-48.4c13.4-1.9,26.7-3.9,40.1-6c0.1,15.7,0.1,28,0.2,43.7c8.1-2.5,16.1-5.1,24-7.9c0-35,0-99.4,0-99.4
			l-14.9-17.7H718.1z M727.3,538.3c0-9.4,0-21-0.1-30.4c13.3-0.7,26.7-1.4,40-2.2c0,8.7,0,20,0.1,28.7
			C754,535.8,740.7,537.1,727.3,538.3z"/>
		<path class="st0" d="M890.7,521.6l0-30.3l-13.5-11.8h-79.4c0,38.3,0,76.6,0,114.8c7.8-2.8,15.4-5.8,23-8.9l-0.2-36.7l15.9-3.7
			l26.5,21.2c6.9-3.5,13.8-7.1,20.6-10.9l-18.9-17.8l16.1-4.9L890.7,521.6z M820.5,523.4l-0.1-22.1l48.1-1.4l0.1,14.8L820.5,523.4z"
			/>
		<path class="st0" d="M670.7,540c-13.9,0.5-27.7,1-41.5,1.3c0-19.1,0-42.8,0-61.9h-25.5c0,50.2,0,100.4,0,150.6
			c8.6-0.1,17.1-0.5,25.6-1c0-19.1,0-38.2,0-57.4c13.9-0.5,27.7-1.2,41.5-2.1c0,18.5,0,37.1,0,55.6c8.5-1.1,17-2.4,25.4-3.8
			c0-47.3,0-94.7,0-142h-25.4C670.7,498.1,670.7,521.4,670.7,540z"/>
	</g>
	<path class="st0" d="M767.3,505.7"/>
</g>
</svg>
